<svg width="16" height="12" viewBox="0 0 16 12" fill="none" xmlns="http://www.w3.org/2000/svg">
<mask id="path-1-outside-1_2869_15025" maskUnits="userSpaceOnUse" x="-2" y="-2" width="20" height="16" fill="black">
<rect fill="white" x="-2" y="-2" width="20" height="16"/>
<path d="M7.79016 11H0.902156V10.104L4.44416 6.702C5.52216 5.554 6.30616 4.672 6.30616 3.468C6.26416 2.236 5.48016 1.662 4.41616 1.662C3.24016 1.662 2.37216 2.502 2.37216 3.678L1.11216 3.468C1.37816 1.578 2.73616 0.555999 4.48616 0.555999C6.23616 0.555999 7.59416 1.62 7.59416 3.44C7.59416 4.966 6.61416 6.03 5.45216 7.192L2.58216 10.034C2.97416 9.922 3.39416 9.866 3.74416 9.866H7.79016V11ZM11.174 4.56C11.65 4.434 12.14 4.378 12.644 4.378C14.814 4.378 15.976 5.722 15.976 7.514C15.976 9.698 14.338 11.126 12.252 11.126C11.02 11.126 9.984 10.622 9.354 10.02L10.04 9.082C10.656 9.6 11.468 9.978 12.308 9.978C13.722 9.978 14.744 9.096 14.744 7.584C14.744 6.24 13.876 5.456 12.406 5.456C11.86 5.456 11.328 5.582 10.726 5.792L9.9 5.554L10.74 0.695999H15.654V1.872H11.636L11.174 4.56Z"/>
</mask>
<path d="M7.79016 11H0.902156V10.104L4.44416 6.702C5.52216 5.554 6.30616 4.672 6.30616 3.468C6.26416 2.236 5.48016 1.662 4.41616 1.662C3.24016 1.662 2.37216 2.502 2.37216 3.678L1.11216 3.468C1.37816 1.578 2.73616 0.555999 4.48616 0.555999C6.23616 0.555999 7.59416 1.62 7.59416 3.44C7.59416 4.966 6.61416 6.03 5.45216 7.192L2.58216 10.034C2.97416 9.922 3.39416 9.866 3.74416 9.866H7.79016V11ZM11.174 4.56C11.65 4.434 12.14 4.378 12.644 4.378C14.814 4.378 15.976 5.722 15.976 7.514C15.976 9.698 14.338 11.126 12.252 11.126C11.02 11.126 9.984 10.622 9.354 10.02L10.04 9.082C10.656 9.6 11.468 9.978 12.308 9.978C13.722 9.978 14.744 9.096 14.744 7.584C14.744 6.24 13.876 5.456 12.406 5.456C11.86 5.456 11.328 5.582 10.726 5.792L9.9 5.554L10.74 0.695999H15.654V1.872H11.636L11.174 4.56Z" fill="#1B1B20"/>
<path d="M7.79016 11V13H9.79016V11H7.79016ZM0.902156 11H-1.09784V13H0.902156V11ZM0.902156 10.104L-0.483263 8.66157L-1.09784 9.25186V10.104H0.902156ZM4.44416 6.702L5.82958 8.14443L5.8668 8.10868L5.90212 8.07106L4.44416 6.702ZM6.30616 3.468H8.30616V3.43392L8.305 3.39986L6.30616 3.468ZM2.37216 3.678L2.04336 5.65079L4.37216 6.03892V3.678H2.37216ZM1.11216 3.468L-0.868325 3.18926L-1.14009 5.12021L0.783357 5.44079L1.11216 3.468ZM5.45216 7.192L6.85944 8.61315L6.86637 8.60621L5.45216 7.192ZM2.58216 10.034L1.17489 8.61287L3.1316 11.957L2.58216 10.034ZM7.79016 9.866H9.79016V7.866H7.79016V9.866ZM7.79016 9H0.902156V13H7.79016V9ZM2.90216 11V10.104H-1.09784V11H2.90216ZM2.28758 11.5464L5.82958 8.14443L3.05874 5.25957L-0.483263 8.66157L2.28758 11.5464ZM5.90212 8.07106C6.85579 7.05547 8.30616 5.59821 8.30616 3.468H4.30616C4.30616 3.58944 4.28002 3.73987 4.09705 4.02448C3.88158 4.35966 3.5455 4.73731 2.98619 5.33294L5.90212 8.07106ZM8.305 3.39986C8.26935 2.35424 7.89704 1.3415 7.07411 0.609044C6.27769 -0.0998044 5.29268 -0.338001 4.41616 -0.338001V3.662C4.50518 3.662 4.54016 3.67428 4.5337 3.67217C4.52354 3.66885 4.47418 3.64989 4.41471 3.59695C4.38617 3.57156 4.36098 3.54325 4.3403 3.51418C4.31972 3.48523 4.30734 3.46077 4.30072 3.44511C4.28735 3.41351 4.30383 3.43378 4.30732 3.53614L8.305 3.39986ZM4.41616 -0.338001C2.17238 -0.338001 0.372156 1.361 0.372156 3.678H4.37216C4.37216 3.65424 4.37432 3.63892 4.37584 3.63102C4.37736 3.62313 4.37853 3.62102 4.37757 3.62336C4.37661 3.62571 4.37422 3.63079 4.36976 3.63744C4.36531 3.64408 4.35981 3.65076 4.35357 3.65688C4.34735 3.66298 4.34159 3.66735 4.33723 3.67017C4.33287 3.67298 4.33114 3.67345 4.33319 3.67265C4.33618 3.67147 4.3614 3.662 4.41616 3.662V-0.338001ZM2.70096 1.70521L1.44096 1.49521L0.783357 5.44079L2.04336 5.65079L2.70096 1.70521ZM3.09264 3.74673C3.16462 3.23527 3.35547 2.97899 3.52123 2.84118C3.69842 2.69388 4.00109 2.556 4.48616 2.556V-1.444C3.22122 -1.444 1.9699 -1.07088 0.964079 -0.234684C-0.0531596 0.611008 -0.67431 1.81073 -0.868325 3.18926L3.09264 3.74673ZM4.48616 2.556C4.96604 2.556 5.24313 2.70022 5.37177 2.81394C5.47188 2.90244 5.59416 3.06373 5.59416 3.44H9.59416C9.59416 1.99627 9.03744 0.715558 8.02105 -0.182942C7.03319 -1.05622 5.75628 -1.444 4.48616 -1.444V2.556ZM5.59416 3.44C5.59416 4.02752 5.27697 4.53876 4.03794 5.77779L6.86637 8.60621C7.95135 7.52124 9.59416 5.90447 9.59416 3.44H5.59416ZM4.04489 5.77087L1.17489 8.61287L3.98942 11.4551L6.85942 8.61313L4.04489 5.77087ZM3.1316 11.957C3.34884 11.895 3.58403 11.866 3.74416 11.866V7.866C3.20428 7.866 2.59947 7.94902 2.03271 8.11095L3.1316 11.957ZM3.74416 11.866H7.79016V7.866H3.74416V11.866ZM5.79016 9.866V11H9.79016V9.866H5.79016ZM11.174 4.56L9.2029 4.22122L8.67541 7.29028L11.6858 6.49341L11.174 4.56ZM9.354 10.02L7.73966 8.83936L6.7046 10.2546L7.97228 11.466L9.354 10.02ZM10.04 9.082L11.3272 7.55128L9.68911 6.17379L8.42566 7.90136L10.04 9.082ZM10.726 5.792L10.1723 7.71381L10.7838 7.89003L11.3847 7.6804L10.726 5.792ZM9.9 5.554L7.92924 5.21323L7.62383 6.97952L9.34626 7.47581L9.9 5.554ZM10.74 0.695999V-1.304H9.05614L8.76924 0.355234L10.74 0.695999ZM15.654 0.695999H17.654V-1.304H15.654V0.695999ZM15.654 1.872V3.872H17.654V1.872H15.654ZM11.636 1.872V-0.128H9.95042L9.6649 1.53322L11.636 1.872ZM11.6858 6.49341C11.9733 6.41731 12.289 6.378 12.644 6.378V2.378C11.991 2.378 11.3267 2.45069 10.6622 2.62659L11.6858 6.49341ZM12.644 6.378C13.3076 6.378 13.595 6.57403 13.7117 6.69042C13.8338 6.81213 13.976 7.05303 13.976 7.514H17.976C17.976 6.18297 17.5372 4.85587 16.5358 3.85758C15.529 2.85397 14.1504 2.378 12.644 2.378V6.378ZM13.976 7.514C13.976 8.47855 13.3519 9.126 12.252 9.126V13.126C15.3241 13.126 17.976 10.9174 17.976 7.514H13.976ZM12.252 9.126C11.555 9.126 11.0085 8.83469 10.7357 8.57402L7.97228 11.466C8.95949 12.4093 10.485 13.126 12.252 13.126V9.126ZM10.9683 11.2006L11.6543 10.2626L8.42566 7.90136L7.73966 8.83936L10.9683 11.2006ZM8.7528 10.6127C9.63129 11.3515 10.8832 11.978 12.308 11.978V7.978C12.0528 7.978 11.6807 7.84855 11.3272 7.55128L8.7528 10.6127ZM12.308 11.978C13.4283 11.978 14.5622 11.6236 15.4317 10.7999C16.3165 9.96173 16.744 8.81038 16.744 7.584H12.744C12.744 7.73588 12.7187 7.81952 12.7048 7.85434C12.6919 7.88661 12.6822 7.89471 12.6808 7.89609C12.678 7.89874 12.6593 7.91617 12.6064 7.93527C12.5513 7.95514 12.4546 7.978 12.308 7.978V11.978ZM16.744 7.584C16.744 6.46489 16.3682 5.35054 15.471 4.53553C14.6 3.74449 13.4805 3.456 12.406 3.456V7.456C12.8015 7.456 12.851 7.55951 12.7815 7.49646C12.7492 7.46704 12.7314 7.4347 12.7269 7.42327C12.7245 7.41735 12.744 7.46245 12.744 7.584H16.744ZM12.406 3.456C11.5443 3.456 10.7729 3.65745 10.0673 3.9036L11.3847 7.6804C11.8831 7.50655 12.1757 7.456 12.406 7.456V3.456ZM11.2797 3.87019L10.4537 3.63219L9.34626 7.47581L10.1723 7.71381L11.2797 3.87019ZM11.8708 5.89476L12.7108 1.03676L8.76924 0.355234L7.92924 5.21323L11.8708 5.89476ZM10.74 2.696H15.654V-1.304H10.74V2.696ZM13.654 0.695999V1.872H17.654V0.695999H13.654ZM15.654 -0.128H11.636V3.872H15.654V-0.128ZM9.6649 1.53322L9.2029 4.22122L13.1451 4.89878L13.6071 2.21078L9.6649 1.53322Z" fill="#FFFDF0" mask="url(#path-1-outside-1_2869_15025)"/>
</svg>
