<svg width="300" height="380" viewBox="0 0 300 380" fill="none" xmlns="http://www.w3.org/2000/svg">
<path fill-rule="evenodd" clip-rule="evenodd" d="M296.667 333.451V46.5494C273.55 44.918 255.082 26.4499 253.451 3.33331H46.5495C44.918 26.4499 26.4499 44.918 3.33333 46.5494V333.451C26.4499 335.082 44.918 353.55 46.5495 376.667H253.451C255.082 353.55 273.55 335.082 296.667 333.451ZM300 336.667C276.068 336.667 256.667 356.068 256.667 380H43.3333C43.3333 356.068 23.9323 336.667 0 336.667V43.3333C23.9323 43.3333 43.3333 23.9323 43.3333 0H256.667C256.667 23.9323 276.068 43.3333 300 43.3333V336.667ZM6.66667 10C8.50761 10 10 8.50763 10 6.66669C10 4.82574 8.50761 3.33331 6.66667 3.33331C4.82572 3.33331 3.33333 4.82574 3.33333 6.66669C3.33333 8.50763 4.82572 10 6.66667 10ZM6.66667 13.3333C10.3486 13.3333 13.3333 10.3486 13.3333 6.66669C13.3333 2.98474 10.3486 0 6.66667 0C2.98477 0 0 2.98474 0 6.66669C0 10.3486 2.98477 13.3333 6.66667 13.3333ZM10 373.333C10 375.174 8.50761 376.667 6.66667 376.667C4.82572 376.667 3.33333 375.174 3.33333 373.333C3.33333 371.492 4.82572 370 6.66667 370C8.50761 370 10 371.492 10 373.333ZM13.3333 373.333C13.3333 377.015 10.3486 380 6.66667 380C2.98477 380 0 377.015 0 373.333C0 369.651 2.98477 366.667 6.66667 366.667C10.3486 366.667 13.3333 369.651 13.3333 373.333ZM293.333 10C295.174 10 296.667 8.50763 296.667 6.66669C296.667 4.82574 295.174 3.33331 293.333 3.33331C291.492 3.33331 290 4.82574 290 6.66669C290 8.50763 291.492 10 293.333 10ZM293.333 13.3333C297.015 13.3333 300 10.3486 300 6.66669C300 2.98474 297.015 0 293.333 0C289.651 0 286.667 2.98474 286.667 6.66669C286.667 10.3486 289.651 13.3333 293.333 13.3333ZM296.667 373.333C296.667 375.174 295.174 376.667 293.333 376.667C291.492 376.667 290 375.174 290 373.333C290 371.492 291.492 370 293.333 370C295.174 370 296.667 371.492 296.667 373.333ZM300 373.333C300 377.015 297.015 380 293.333 380C289.651 380 286.667 377.015 286.667 373.333C286.667 369.651 289.651 366.667 293.333 366.667C297.015 366.667 300 369.651 300 373.333Z" fill="#2F9C89"/>
</svg>
