<svg width="106" height="82" viewBox="0 0 106 82" fill="none" xmlns="http://www.w3.org/2000/svg">
<path d="M103.92 44.3895C104.378 44.3895 104.75 44.7609 104.75 45.219V50.8926C104.75 51.3507 104.378 51.7221 103.92 51.7221H87.2308C86.7727 51.7221 86.4014 51.3507 86.4014 50.8926V29.3261C86.4014 28.868 86.7727 28.4966 87.2308 28.4966H92.9377C93.3958 28.4966 93.7672 28.868 93.7672 29.3261V44.124H92.1746V44.3895H103.92Z" fill="#36363B"/>
<path d="M83.2957 51.4567C83.3134 51.5976 83.2035 51.7221 83.0614 51.7221H66.2416C65.7835 51.7221 65.4121 51.3507 65.4121 50.8926V29.3261C65.4121 28.868 65.7835 28.4966 66.2416 28.4966H83.0614C83.2035 28.4966 83.3134 28.6211 83.2957 28.762C83.2957 28.8947 83.163 30.2883 82.9971 31.8477C82.8644 33.4071 82.7649 34.7011 82.7317 34.7011C79.646 34.7675 76.5935 34.7675 73.5079 34.7675H72.7753C72.3186 34.7675 71.9484 35.1377 71.9484 35.5943V37.4882H70.0904V37.82H76.9585C77.4166 37.82 77.788 38.1913 77.788 38.6495V41.5692C77.788 42.0274 77.4166 42.3987 76.9585 42.3987H72.7753C72.3186 42.3987 71.9484 42.7689 71.9484 43.2256V44.6086C71.9484 45.0584 72.308 45.4257 72.7577 45.4353L73.5079 45.4512C74.3705 45.4512 76.7926 45.4512 78.8829 45.4844C80.1073 45.4844 81.1994 45.4844 81.9046 45.4908C82.3627 45.4949 82.7851 45.8836 82.8254 46.3399C82.8712 46.8599 82.9299 47.5814 82.9971 48.371C83.163 49.9304 83.2957 51.324 83.2957 51.4567Z" fill="#36363B"/>
<path d="M51.5646 51.7221C51.1065 51.7221 50.7352 51.3507 50.7352 50.8926V35.8956H45.8578C45.3997 35.8956 45.0283 35.5242 45.0283 35.0661V29.3261C45.0283 28.868 45.3997 28.4966 45.8578 28.4966H63.6419C64.1 28.4966 64.4714 28.868 64.4714 29.3261V35.0661C64.4714 35.5242 64.1 35.8956 63.6419 35.8956H60.3903C56.3756 35.8956 56.3425 35.8956 56.3425 35.9951C56.3425 36.0947 56.3756 36.0947 57.2051 36.0947H58.101V50.8926C58.101 51.3507 57.7296 51.7221 57.2715 51.7221H51.5646Z" fill="#36363B"/>
<path d="M4.78366 51.6226C4.7745 51.6226 4.767 51.6152 4.767 51.606C4.767 51.5968 4.75957 51.5894 4.75041 51.5894H2.07948C1.62137 51.5894 1.25 51.218 1.25 50.7599V29.3261C1.25 28.868 1.62137 28.4966 2.07948 28.4966H7.78631C8.24442 28.4966 8.61579 28.868 8.61579 29.3261V42.2992C8.61579 42.7573 8.98716 43.1287 9.44528 43.1287H12.9955C13.4536 43.1287 13.8249 42.7573 13.8249 42.2992V29.3261C13.8249 28.868 14.1963 28.4966 14.6544 28.4966H20.3613C20.8194 28.4966 21.1907 28.868 21.1907 29.3261V50.7599C21.1907 51.218 20.8194 51.5894 20.3613 51.5894H14.6544C14.1963 51.5894 13.8249 51.218 13.8249 50.7599V45.6503H16.1807V45.3849H6.26007V45.6503H8.61579V51.4899C8.61579 51.5815 8.54152 51.6558 8.4499 51.6558C8.38373 51.6558 6.73398 51.6228 4.78366 51.6226Z" fill="#36363B"/>
<path d="M88.8655 21.2857C88.4468 21.2857 88.1074 20.9464 88.1074 20.5277V0.758039C88.1074 0.339386 88.4468 0 88.8655 0H92.595C97.3555 0.0303212 97.5374 0.0303212 98.8109 0.303215C101.085 0.758038 104.087 2.00122 104.663 4.54823C104.784 5.00306 104.784 5.9127 104.633 6.36753C103.905 8.91454 101.297 10.6732 98.9928 11.6132L98.5077 11.7951H97.3858C96.2336 11.7951 95.9304 11.8557 95.2936 12.068C94.9298 12.1893 94.5962 12.3712 94.5962 12.4318C94.5962 12.5228 94.7175 12.5228 95.1117 12.3712C95.5665 12.1589 96.0517 12.068 96.8097 11.977C98.72 11.7648 101.237 12.6441 102.662 13.9782C104.511 15.7672 104.633 17.162 104.663 19.4968L104.68 20.5149C104.687 20.9385 104.346 21.2857 103.922 21.2857H98.7503C98.3316 21.2857 97.9922 20.9464 97.9922 20.5277V20.3761C97.9922 18.2839 97.4161 15.7369 95.4452 14.6453C95.233 14.5544 95.0207 14.4634 94.9601 14.4331L94.8388 14.4027V20.5277C94.8388 20.9464 94.4994 21.2857 94.0808 21.2857H88.8655ZM94.8388 4.97274V8.21714L95.4149 8.1565C96.6581 8.1565 99.2354 7.61071 99.9631 6.67074C100.479 5.9127 99.5993 5.24563 97.689 4.97274C97.1736 4.91209 95.3846 4.88177 95.0207 4.94241L94.8388 4.97274Z" fill="#36363B"/>
<path d="M85.6763 21.0431C85.6924 21.1719 85.592 21.2856 85.4622 21.2856H70.091C69.6724 21.2856 69.333 20.9463 69.333 20.5276V0.818586C69.333 0.399933 69.6724 0.0605469 70.091 0.0605469H85.4622C85.592 0.0605469 85.6924 0.174315 85.6763 0.30312C85.6763 0.424406 85.555 1.69791 85.4034 3.12303C85.2821 4.54814 85.1912 5.73068 85.1608 5.73068C82.3409 5.79132 79.5514 5.79132 76.7315 5.79132H75.8688C75.5582 5.79132 75.3064 6.04316 75.3064 6.35382V8.27769H73.6083V8.58091H79.8849C80.3035 8.58091 80.6429 8.92029 80.6429 9.33895V12.0072C80.6429 12.4259 80.3035 12.7653 79.8849 12.7653H75.8688C75.5582 12.7653 75.3064 13.0171 75.3064 13.3278V14.9739C75.3064 15.2799 75.551 15.5297 75.8569 15.5363L76.7315 15.5549C77.5198 15.5549 79.7333 15.5549 81.6435 15.5852C82.7625 15.5852 83.7605 15.5852 84.405 15.591C84.8236 15.5948 85.2096 15.95 85.2464 16.367C85.2884 16.8422 85.342 17.5016 85.4034 18.2232C85.555 19.6483 85.6763 20.9218 85.6763 21.0431Z" fill="#36363B"/>
<path d="M58.1199 21.2858C54.8149 20.7704 51.8737 18.8601 50.7215 15.5854C50.2363 14.1603 50.0847 12.8564 50.115 10.1881C50.1454 8.33853 50.2363 7.58049 50.4486 6.6102C50.7215 5.63991 51.1763 4.60898 51.7524 3.7903C52.1769 3.21419 53.1472 2.18325 53.7536 1.78907C55.5123 0.515565 57.5135 -0.0605446 59.7876 0.0607419C63.4565 0.303315 66.6706 2.69872 67.7622 6.27666C67.9119 6.75588 68.0617 7.4422 68.0653 7.83881C68.0654 7.84865 68.0661 7.85828 68.0675 7.86802C68.0832 7.97845 68.0091 8.08167 67.8994 8.10198L67.277 8.21724C65.9581 8.44122 63.4341 8.78773 62.5548 8.88801C62.355 8.9108 62.2124 8.80769 62.1947 8.60742C62.1807 8.44911 62.1667 8.24545 62.1527 8.03531C62.0617 6.73149 61.5462 3.15354 59.636 3.15354C59.2418 3.15354 58.8173 3.36579 58.3928 3.7903C57.3922 4.79091 56.6948 6.82245 56.5129 9.24818C56.4522 10.2185 56.4826 12.1894 56.6038 12.9474C56.7858 14.3725 57.6954 18.2234 59.6663 18.2234C61.0308 18.2234 61.7282 16.0099 61.9404 14.979C62.0011 14.7061 62.0617 14.4028 62.092 14.3422C62.092 14.2209 62.092 14.2209 63.123 14.2209H64.1539V13.9783H59.9392C59.5206 13.9783 59.1812 13.639 59.1812 13.2203V12.7074C59.1812 12.2878 59.5221 11.948 59.9418 11.9494L67.3402 11.9745C67.7579 11.976 68.0957 12.3149 68.0957 12.7326V12.7958C68.0957 16.0099 66.1854 18.8601 63.3352 20.3155C61.9404 21.0433 60.8489 21.2252 59.3328 21.2858C58.7567 21.2858 58.1806 21.2858 58.1199 21.2555V21.2858Z" fill="#36363B"/>
<path d="M33.3235 21.225V21.1947H30.8674C30.4488 21.1947 30.1094 20.8553 30.1094 20.4366V0.818586C30.1094 0.399933 30.4488 0.0605469 30.8674 0.0605469H36.4066C36.6713 0.0605469 36.9118 0.214429 37.0227 0.454728C37.2046 0.848908 38.2659 3.42624 40.2368 8.21705L41.5709 11.5221V5.79132L41.5972 0.814575C41.5995 0.397494 41.9382 0.0605469 42.3553 0.0605469H47.5746C47.9932 0.0605469 48.3326 0.399932 48.3326 0.818586V20.4366C48.3326 20.8553 47.9932 21.1947 47.5746 21.1947H41.7528C41.6574 21.1947 41.5675 21.1497 41.5103 21.0734C41.4193 20.9218 41.1767 20.3457 38.9329 14.9788C37.8414 12.3408 36.8711 10.0667 36.8104 9.91506C36.7498 9.76345 36.5375 9.21766 36.3253 8.70219C36.0221 8.0048 35.9311 7.79255 35.8705 7.79255C35.8098 7.79255 35.7795 7.82287 35.7795 7.88351C35.7795 7.91383 36.0221 8.52026 36.295 9.21766L36.8408 10.4912V21.1327C36.8408 21.2004 36.7858 21.2553 36.7181 21.2553C36.6991 21.2553 36.6797 21.2521 36.6608 21.25C36.437 21.225 35.0001 21.225 33.3235 21.225Z" fill="#36363B"/>
<path d="M26.9333 0C27.352 0 27.6913 0.339385 27.6913 0.758039V20.5883C27.6913 21.007 27.352 21.3464 26.9333 21.3464H21.718C21.2993 21.3464 20.96 21.007 20.96 20.5883V0.758039C20.96 0.339386 21.2993 0 21.718 0H26.9333Z" fill="#36363B"/>
<path d="M9.25859 21.2858C5.95354 20.7704 3.01236 18.8601 1.86014 15.5854C1.37499 14.1603 1.22339 12.8564 1.25371 10.1881C1.28403 8.33853 1.37499 7.58049 1.58724 6.6102C1.86014 5.63991 2.31496 4.60898 2.89107 3.7903C3.31557 3.21419 4.28586 2.18325 4.89229 1.78907C6.65094 0.515565 8.65216 -0.0605446 10.9263 0.0607419C14.5952 0.303315 17.8093 2.69872 18.9008 6.27666C19.0506 6.75588 19.2003 7.4422 19.204 7.83881C19.2041 7.84865 19.2047 7.85828 19.2061 7.86802C19.2219 7.97845 19.1478 8.08167 19.0381 8.10198L18.4157 8.21724C17.0967 8.44122 14.5728 8.78773 13.6934 8.88801C13.4937 8.9108 13.3511 8.80769 13.3334 8.60742C13.3194 8.44911 13.3054 8.24545 13.2913 8.03531C13.2004 6.73149 12.6849 3.15354 10.7747 3.15354C10.3805 3.15354 9.95598 3.36579 9.53148 3.7903C8.53087 4.79091 7.83348 6.82245 7.65155 9.24818C7.5909 10.2185 7.62123 12.1894 7.74251 12.9474C7.92444 14.3725 8.83409 18.2234 10.805 18.2234C12.1695 18.2234 12.8668 16.0099 13.0791 14.979C13.1397 14.7061 13.2004 14.4028 13.2307 14.3422C13.2307 14.2209 13.2307 14.2209 14.2616 14.2209H15.2926V13.9783H11.0779C10.6592 13.9783 10.3198 13.639 10.3198 13.2203V12.7074C10.3198 12.2878 10.6608 11.948 11.0805 11.9494L18.4789 11.9745C18.8966 11.976 19.2344 12.3149 19.2344 12.7326V12.7958C19.2344 16.0099 17.3241 18.8601 14.4739 20.3155C13.0791 21.0433 11.9875 21.2252 10.4714 21.2858C9.89534 21.2858 9.31923 21.2858 9.25859 21.2555V21.2858Z" fill="#36363B"/>
<path fill-rule="evenodd" clip-rule="evenodd" d="M23.9152 40.607C23.9484 43.0291 24.1143 45.3517 25.5078 47.442C27.0341 49.7314 29.3566 51.2244 32.1105 51.6558H32.1437C32.4755 51.7221 33.0395 51.7221 34.2672 51.7221C34.369 51.7197 34.4651 51.7175 34.5559 51.7155C35.7373 51.6884 36.0256 51.6818 36.457 51.5894C38.5473 51.1581 40.0072 50.3618 41.4671 48.9019C43.1924 47.1434 44.0219 45.1526 44.2541 42.2328V39.6117C44.2541 35.796 43.5574 32.5445 40.1399 30.2219C39.6754 29.8569 38.7795 29.3592 38.4477 29.2597C38.3909 29.2218 38.2907 29.1839 38.1904 29.1459C38.1153 29.1175 38.0401 29.0891 37.9832 29.0606C36.7888 28.5961 35.4948 28.4966 34.234 28.4966C31.9114 28.4966 29.8875 28.8616 27.9299 30.2551C26.2046 31.5491 24.8111 33.4071 24.3134 35.5306C23.9816 36.9573 23.882 38.1849 23.9152 40.607ZM35.2451 33.4321C34.8804 33.2636 34.4834 33.1764 34.0817 33.1764C33.6798 33.1764 33.2828 33.2636 32.9181 33.4321C32.5533 33.6007 32.2295 33.8464 31.9691 34.1525C31.7087 34.4585 31.5179 34.8174 31.41 35.2045C31.302 35.5915 31.2794 35.9974 31.3438 36.394L31.201 36.3559C30.9359 36.2811 30.6586 36.2597 30.3852 36.293C30.1118 36.3263 29.8477 36.4135 29.6083 36.5496C29.3689 36.6858 29.1589 36.8681 28.9905 37.0861C28.8221 37.304 28.6987 37.5532 28.6274 37.8193C28.5561 38.0853 28.5383 38.3629 28.5752 38.6358C28.612 38.9088 28.7027 39.1717 28.8419 39.4093C28.9812 39.6469 29.1663 39.8545 29.3864 40.0201C29.6065 40.1856 29.8574 40.3058 30.1243 40.3736L31.3085 40.6911V41.2187L30.0273 43.4372C29.7558 43.9147 29.6842 44.4802 29.8281 45.0102C29.972 45.5402 30.3197 45.9919 30.7954 46.2665C31.271 46.5411 31.836 46.6164 32.367 46.4761C32.898 46.3357 33.3519 45.991 33.6296 45.5171L34.0817 44.7337L34.5337 45.5165C34.6693 45.7549 34.8507 45.9642 35.0674 46.1322C35.2842 46.3003 35.5321 46.4238 35.7968 46.4957C36.0615 46.5676 36.3379 46.5864 36.6099 46.551C36.8819 46.5156 37.1442 46.4268 37.3818 46.2897C37.6193 46.1525 37.8274 45.9697 37.994 45.7519C38.1606 45.534 38.2825 45.2853 38.3526 45.0201C38.4227 44.7549 38.4397 44.4785 38.4025 44.2067C38.3653 43.9349 38.2748 43.6732 38.1361 43.4366L36.8549 41.2173V40.6904L38.039 40.3729C38.306 40.3051 38.5568 40.1849 38.7769 40.0194C38.9971 39.8539 39.1821 39.6463 39.3214 39.4086C39.4607 39.171 39.5513 38.9081 39.5882 38.6351C39.625 38.3622 39.6073 38.0846 39.536 37.8186C39.4647 37.5526 39.3412 37.3033 39.1728 37.0854C39.0045 36.8674 38.7945 36.6851 38.555 36.5489C38.3156 36.4128 38.0515 36.3256 37.7781 36.2923C37.5047 36.259 37.2274 36.2804 36.9623 36.3552L36.8195 36.3933C36.8838 35.9968 36.8611 35.591 36.7531 35.204C36.6451 34.817 36.4543 34.4582 36.1939 34.1522C35.9335 33.8463 35.6098 33.6006 35.2451 33.4321ZM33.5914 41.0058C33.7214 40.8758 33.8978 40.8027 34.0817 40.8027C34.2655 40.8027 34.4419 40.8758 34.5719 41.0058C34.7019 41.1358 34.775 41.3121 34.775 41.496C34.775 41.6799 34.7019 41.8562 34.5719 41.9862C34.4419 42.1163 34.2655 42.1893 34.0817 42.1893C33.8978 42.1893 33.7214 42.1163 33.5914 41.9862C33.4614 41.8562 33.3884 41.6799 33.3884 41.496C33.3884 41.3121 33.4614 41.1358 33.5914 41.0058ZM33.5914 38.9259C33.7214 38.7959 33.8978 38.7228 34.0817 38.7228C34.2655 38.7228 34.4419 38.7959 34.5719 38.9259C34.7019 39.0559 34.775 39.2322 34.775 39.4161C34.775 39.6 34.7019 39.7763 34.5719 39.9063C34.4419 40.0364 34.2655 40.1094 34.0817 40.1094C33.8978 40.1094 33.7214 40.0364 33.5914 39.9063C33.4614 39.7763 33.3884 39.6 33.3884 39.4161C33.3884 39.2322 33.4614 39.0559 33.5914 38.9259Z" fill="#36363B"/>
<path d="M103.959 28.4966H97.6343C97.1995 28.4966 96.8477 28.8523 96.8477 29.2872L96.8438 34.0306C96.8438 34.4655 97.1995 34.8212 97.6343 34.8212H103.959C104.394 34.8212 104.75 34.4655 104.75 34.0306V29.2872C104.75 28.8523 104.394 28.4966 103.959 28.4966ZM103.959 29.892C103.959 30.0075 103.899 30.115 103.801 30.1762L101.095 31.8679C100.912 31.9819 100.681 31.9819 100.499 31.8679L97.7919 30.1762C97.6939 30.115 97.6343 30.0075 97.6343 29.892C97.6343 29.6287 97.9239 29.4682 98.1472 29.6077L100.499 31.0773C100.681 31.1913 100.912 31.1913 101.095 31.0773L103.446 29.6077C103.669 29.4682 103.959 29.6287 103.959 29.892Z" fill="#36363B"/>
<path d="M5.1568 74.2127C3.8368 74.2127 3.0068 73.2327 3.0268 71.9127C3.0668 70.7027 3.8368 69.5827 5.1468 69.5827C5.7968 69.5827 6.3268 69.9127 6.6268 70.4027V70.1027C6.6268 69.8327 6.7368 69.7227 6.9968 69.7227C7.2368 69.7227 7.3368 69.8327 7.3368 70.1027L7.3268 72.7827C7.3268 73.7827 8.4968 73.6027 8.4968 71.7127C8.4968 69.2627 6.7468 68.2627 5.2568 68.2627C3.6768 68.2627 1.9068 69.4527 1.9068 71.8927C1.9068 74.3527 3.6768 75.5027 5.4568 75.5027C6.1168 75.5027 6.7168 75.3327 7.1068 75.1927C7.3468 75.0927 7.5068 75.1327 7.5968 75.2927C7.7068 75.4727 7.6468 75.6727 7.4168 75.7627C6.8168 76.0227 6.2268 76.1427 5.4568 76.1427C3.1768 76.1427 1.1668 74.7327 1.1668 71.9127C1.1668 69.1827 3.1768 67.6227 5.2568 67.6227C7.3068 67.6227 9.2668 69.0227 9.2668 71.7327C9.2668 73.5227 8.4768 74.0027 7.7468 74.0627C7.2668 74.1027 6.7168 73.8827 6.6368 73.3827C6.3368 73.9527 5.8068 74.2127 5.1568 74.2127ZM3.7868 71.9227C3.7668 72.9227 4.2968 73.5827 5.1668 73.5827C5.9768 73.5827 6.5768 72.7627 6.5768 71.8927C6.5768 71.0527 6.0268 70.2227 5.2168 70.2227C4.3268 70.2227 3.8068 71.0327 3.7868 71.9227ZM11.4288 76.5627C11.2588 76.4527 11.1588 76.2727 11.3188 76.0727C11.4788 75.8827 11.6488 75.9027 11.8088 76.0127C12.1588 76.2727 12.6388 76.3827 13.0788 76.3827C13.9088 76.3827 14.5288 75.9327 14.5288 75.0027V74.0827C14.1588 74.6127 13.5588 74.9327 12.7788 74.9327C11.3588 74.9327 10.4488 73.9327 10.4488 72.5327C10.4488 71.1327 11.3588 70.1027 12.7788 70.1027C13.5088 70.1027 14.1488 70.3727 14.5288 70.8527V70.5127C14.5288 70.2527 14.6388 70.1427 14.8888 70.1427C15.1388 70.1427 15.2488 70.2527 15.2488 70.5127V74.7227C15.2488 76.1627 14.5488 77.0027 13.0788 77.0027C12.4288 77.0027 11.8588 76.8527 11.4288 76.5627ZM11.1688 72.5427C11.1688 73.6727 11.8388 74.3127 12.8288 74.3127C13.7788 74.3127 14.5288 73.6727 14.5288 72.5427C14.5288 71.4027 13.7788 70.7227 12.8288 70.7227C11.8388 70.7227 11.1688 71.4027 11.1688 72.5427ZM17.0496 68.8927C16.7596 68.8927 16.5496 68.6927 16.5496 68.4127C16.5496 68.1327 16.7596 67.9227 17.0496 67.9227C17.3396 67.9227 17.5496 68.1327 17.5496 68.4127C17.5496 68.6927 17.3396 68.8927 17.0496 68.8927ZM16.6896 70.4827C16.6896 70.2127 16.7896 70.1027 17.0496 70.1027C17.2996 70.1027 17.3996 70.2127 17.3996 70.4827V74.7827C17.3996 75.0427 17.2996 75.1527 17.0496 75.1527C16.7896 75.1527 16.6896 75.0427 16.6896 74.7827V70.4827ZM19.2196 70.2427C19.4596 70.2427 19.5696 70.3527 19.5696 70.6127V70.9627C19.8896 70.4927 20.4396 70.2027 21.1496 70.2027C22.4996 70.2027 23.2896 71.1027 23.2896 72.5127V74.8727C23.2896 75.1327 23.1896 75.2427 22.9296 75.2427C22.6896 75.2427 22.5696 75.1227 22.5696 74.8727V72.5427C22.5696 71.4427 22.0796 70.8227 21.1496 70.8227C20.2196 70.8227 19.5696 71.5127 19.5696 72.5927V74.8727C19.5696 75.1327 19.4696 75.2427 19.2196 75.2427C18.9696 75.2427 18.8496 75.1227 18.8496 74.8727V70.6127C18.8496 70.3527 18.9596 70.2427 19.2196 70.2427ZM25.678 76.5627C25.508 76.4527 25.408 76.2727 25.568 76.0727C25.728 75.8827 25.898 75.9027 26.058 76.0127C26.408 76.2727 26.888 76.3827 27.328 76.3827C28.158 76.3827 28.778 75.9327 28.778 75.0027V74.0827C28.408 74.6127 27.808 74.9327 27.028 74.9327C25.608 74.9327 24.698 73.9327 24.698 72.5327C24.698 71.1327 25.608 70.1027 27.028 70.1027C27.758 70.1027 28.398 70.3727 28.778 70.8527V70.5127C28.778 70.2527 28.888 70.1427 29.138 70.1427C29.388 70.1427 29.498 70.2527 29.498 70.5127V74.7227C29.498 76.1627 28.798 77.0027 27.328 77.0027C26.678 77.0027 26.108 76.8527 25.678 76.5627ZM25.418 72.5427C25.418 73.6727 26.088 74.3127 27.078 74.3127C28.028 74.3127 28.778 73.6727 28.778 72.5427C28.778 71.4027 28.028 70.7227 27.078 70.7227C26.088 70.7227 25.418 71.4027 25.418 72.5427ZM35.0388 74.5827C34.6888 74.8927 34.0488 75.1427 33.2788 75.1427C31.8188 75.1427 30.8888 74.1927 30.8888 72.6327C30.8888 71.1227 31.7188 70.1027 33.1688 70.1027C34.5188 70.1027 35.4888 71.1227 35.4288 72.6327C35.4188 72.8527 35.3188 72.9527 35.0588 72.9527H31.6388C31.7188 74.0027 32.3988 74.5427 33.2888 74.5427C33.8488 74.5427 34.2788 74.3827 34.5988 74.1327C34.7888 73.9727 34.9488 73.9827 35.0788 74.1127C35.2188 74.2327 35.2188 74.4227 35.0388 74.5827ZM34.6688 72.3327C34.6888 71.3727 34.0188 70.7227 33.1788 70.7227C32.2588 70.7227 31.7388 71.3327 31.6288 72.3327H34.6688ZM37.1307 70.1427C37.3707 70.1427 37.4807 70.2527 37.4807 70.5127V70.8927C37.8107 70.4027 38.3507 70.1027 38.9607 70.1027C39.4007 70.1027 39.7007 70.1627 39.9207 70.2927C40.0807 70.4027 40.1207 70.5627 40.0207 70.7427C39.9307 70.8927 39.8007 70.9227 39.6007 70.8327C39.4407 70.7627 39.2207 70.7227 38.9707 70.7227C38.1907 70.7227 37.4807 71.3927 37.4807 72.4827V74.7727C37.4807 75.0327 37.3807 75.1427 37.1307 75.1427C36.8707 75.1427 36.7707 75.0327 36.7707 74.7727V70.5127C36.7707 70.2427 36.8607 70.1427 37.1307 70.1427ZM41.5747 67.6427C41.8247 67.6427 41.9247 67.7527 41.9247 68.0127V70.8627C42.2447 70.3827 42.7947 70.1027 43.5047 70.1027C44.8647 70.1027 45.6447 71.0027 45.6447 72.4227V74.7727C45.6447 75.0327 45.5447 75.1427 45.2847 75.1427C45.0447 75.1427 44.9247 75.0227 44.9247 74.7727V72.4427C44.9247 71.3427 44.4347 70.7227 43.5047 70.7227C42.5747 70.7227 41.9247 71.4027 41.9247 72.4827V74.7727C41.9247 75.0327 41.8247 75.1427 41.5747 75.1427C41.3247 75.1427 41.2047 75.0227 41.2047 74.7727V68.0127C41.2047 67.7527 41.3047 67.6427 41.5747 67.6427ZM49.543 75.1427C48.113 75.1427 47.033 74.0227 47.033 72.6127C47.033 71.2127 48.113 70.0927 49.543 70.0927C50.963 70.0927 52.043 71.2127 52.043 72.6127C52.043 74.0227 50.963 75.1427 49.543 75.1427ZM47.753 72.6227C47.753 73.7527 48.553 74.5327 49.543 74.5327C50.523 74.5327 51.323 73.7527 51.323 72.6227C51.323 71.4927 50.523 70.7127 49.543 70.7127C48.553 70.7127 47.753 71.4927 47.753 72.6227ZM57.3816 74.5927C57.0316 74.9827 56.5816 75.1627 56.0116 75.1627C55.0416 75.1627 54.3816 74.6627 54.3816 73.2727V70.7927H53.5016C53.2416 70.7927 53.1316 70.7127 53.1316 70.4827C53.1316 70.2627 53.2416 70.1627 53.5016 70.1627H54.3816V68.3027C54.3816 68.0427 54.4816 67.9327 54.7316 67.9327C54.9916 67.9327 55.0916 68.0427 55.0916 68.3027V70.1627H56.6916C56.9516 70.1627 57.0616 70.2627 57.0616 70.4827C57.0616 70.7027 56.9516 70.7927 56.6916 70.7927H55.0916V73.2727C55.0916 74.2927 55.5416 74.5427 56.0116 74.5427C56.3816 74.5427 56.6916 74.4027 56.9816 74.1027C57.1116 73.9527 57.2916 73.9127 57.4416 74.0927C57.6016 74.2427 57.5416 74.4227 57.3816 74.5927ZM62.7459 74.5827C62.3959 74.8927 61.7559 75.1427 60.9859 75.1427C59.5259 75.1427 58.5959 74.1927 58.5959 72.6327C58.5959 71.1227 59.4259 70.1027 60.8759 70.1027C62.2259 70.1027 63.1959 71.1227 63.1359 72.6327C63.1259 72.8527 63.0259 72.9527 62.7659 72.9527H59.3459C59.4259 74.0027 60.1059 74.5427 60.9959 74.5427C61.5559 74.5427 61.9859 74.3827 62.3059 74.1327C62.4959 73.9727 62.6559 73.9827 62.7859 74.1127C62.9259 74.2327 62.9259 74.4227 62.7459 74.5827ZM62.3759 72.3327C62.3959 71.3727 61.7259 70.7227 60.8859 70.7227C59.9659 70.7227 59.4459 71.3327 59.3359 72.3327H62.3759ZM65.1877 74.0927C65.1877 74.3627 65.3277 74.5027 65.5877 74.5027C65.8477 74.5027 65.9577 74.5927 65.9577 74.8227C65.9577 75.0527 65.8477 75.1427 65.5877 75.1427C64.8377 75.1427 64.4777 74.8527 64.4777 74.0727V68.0027C64.4777 67.7427 64.5777 67.6327 64.8377 67.6327C65.0877 67.6327 65.1877 67.7427 65.1877 68.0027V74.0927ZM66.6419 76.3427C66.6419 76.1327 66.7419 76.0327 67.0019 76.0327H71.1919C71.4519 76.0327 71.5519 76.1327 71.5519 76.3427C71.5519 76.5527 71.4519 76.6527 71.1919 76.6527H67.0019C66.7419 76.6527 66.6419 76.5627 66.6419 76.3427ZM75.2872 75.1427C73.8572 75.1427 72.7772 74.0227 72.7772 72.6127C72.7772 71.2127 73.8572 70.0927 75.2872 70.0927C76.7072 70.0927 77.7872 71.2127 77.7872 72.6127C77.7872 74.0227 76.7072 75.1427 75.2872 75.1427ZM73.4972 72.6227C73.4972 73.7527 74.2972 74.5327 75.2872 74.5327C76.2672 74.5327 77.0672 73.7527 77.0672 72.6227C77.0672 71.4927 76.2672 70.7127 75.2872 70.7127C74.2972 70.7127 73.4972 71.4927 73.4972 72.6227ZM82.7504 68.1427C82.9104 68.2827 82.9904 68.4627 82.8204 68.6327C82.6704 68.8027 82.5104 68.7727 82.3604 68.6327C82.0704 68.3827 81.7304 68.2027 81.3204 68.2427C80.7704 68.2927 80.3704 68.6627 80.3704 69.6927V70.1627H82.2604C82.5204 70.1627 82.6304 70.2627 82.6304 70.4827C82.6304 70.6927 82.5204 70.7927 82.2604 70.7927H80.3704V74.7727C80.3704 75.0327 80.2704 75.1427 80.0104 75.1427C79.7504 75.1427 79.6504 75.0327 79.6504 74.7727V70.7927H79.0604C78.7904 70.7927 78.6904 70.7027 78.6904 70.4827C78.6904 70.2527 78.7904 70.1627 79.0604 70.1627H79.6504V69.6327C79.6504 68.2227 80.4604 67.6227 81.3604 67.6227C81.9704 67.6227 82.4604 67.8327 82.7504 68.1427ZM87.5457 68.1427C87.7057 68.2827 87.7857 68.4627 87.6157 68.6327C87.4657 68.8027 87.3057 68.7727 87.1557 68.6327C86.8657 68.3827 86.5257 68.2027 86.1157 68.2427C85.5657 68.2927 85.1657 68.6627 85.1657 69.6927V70.1627H87.0557C87.3157 70.1627 87.4257 70.2627 87.4257 70.4827C87.4257 70.6927 87.3157 70.7927 87.0557 70.7927H85.1657V74.7727C85.1657 75.0327 85.0657 75.1427 84.8057 75.1427C84.5457 75.1427 84.4457 75.0327 84.4457 74.7727V70.7927H83.8557C83.5857 70.7927 83.4857 70.7027 83.4857 70.4827C83.4857 70.2527 83.5857 70.1627 83.8557 70.1627H84.4457V69.6327C84.4457 68.2227 85.2557 67.6227 86.1557 67.6227C86.7657 67.6227 87.2557 67.8327 87.5457 68.1427ZM88.891 68.8927C88.601 68.8927 88.391 68.6927 88.391 68.4127C88.391 68.1327 88.601 67.9227 88.891 67.9227C89.181 67.9227 89.391 68.1327 89.391 68.4127C89.391 68.6927 89.181 68.8927 88.891 68.8927ZM88.531 70.4827C88.531 70.2127 88.631 70.1027 88.891 70.1027C89.141 70.1027 89.241 70.2127 89.241 70.4827V74.7827C89.241 75.0427 89.141 75.1527 88.891 75.1527C88.631 75.1527 88.531 75.0427 88.531 74.7827V70.4827ZM94.651 74.6227C94.331 74.9327 93.721 75.1427 93.031 75.1427C91.581 75.1427 90.571 74.1427 90.571 72.6227C90.571 71.1327 91.581 70.1027 93.031 70.1027C93.661 70.1027 94.211 70.2827 94.501 70.5627C94.611 70.6627 94.651 70.8627 94.531 71.0027C94.431 71.1127 94.291 71.1327 94.091 71.0227C93.791 70.8527 93.481 70.7227 93.041 70.7227C92.051 70.7227 91.291 71.4127 91.291 72.6127C91.291 73.7927 92.051 74.5427 93.041 74.5427C93.501 74.5427 93.881 74.4127 94.211 74.1727C94.421 74.0227 94.581 74.0227 94.691 74.1527C94.841 74.2827 94.821 74.4627 94.651 74.6227ZM96.2063 68.8927C95.9163 68.8927 95.7063 68.6927 95.7063 68.4127C95.7063 68.1327 95.9163 67.9227 96.2063 67.9227C96.4963 67.9227 96.7063 68.1327 96.7063 68.4127C96.7063 68.6927 96.4963 68.8927 96.2063 68.8927ZM95.8463 70.4827C95.8463 70.2127 95.9463 70.1027 96.2063 70.1027C96.4563 70.1027 96.5563 70.2127 96.5563 70.4827V74.7827C96.5563 75.0427 96.4563 75.1527 96.2063 75.1527C95.9463 75.1527 95.8463 75.0427 95.8463 74.7827V70.4827ZM98.2963 70.7627C98.7063 70.3427 99.4563 70.1027 100.116 70.1027C101.396 70.1027 102.236 70.7327 102.236 72.1427V74.7727C102.236 75.0327 102.126 75.1427 101.876 75.1427C101.626 75.1427 101.516 75.0327 101.516 74.7727V74.3627C101.156 74.8227 100.556 75.1427 99.8163 75.1427C98.7063 75.1427 97.9063 74.6727 97.9063 73.6727C97.9063 72.6827 98.6863 72.1327 100.016 72.1327C100.656 72.1327 101.206 72.1827 101.516 72.1927V71.9127C101.516 70.9927 100.736 70.7227 100.116 70.7227C99.6063 70.7227 99.1163 70.9427 98.7063 71.2727C98.5563 71.4027 98.3763 71.4327 98.2263 71.2627C98.0763 71.1027 98.1463 70.9027 98.2963 70.7627ZM98.6263 73.6827C98.6263 74.2327 99.1463 74.5427 99.8163 74.5427C100.786 74.5427 101.516 73.8827 101.516 72.7527C101.156 72.7527 100.316 72.7327 100.016 72.7327C99.2263 72.7327 98.6263 73.0527 98.6263 73.6827ZM104.449 74.0927C104.449 74.3627 104.589 74.5027 104.849 74.5027C105.109 74.5027 105.219 74.5927 105.219 74.8227C105.219 75.0527 105.109 75.1427 104.849 75.1427C104.099 75.1427 103.739 74.8527 103.739 74.0727V68.0027C103.739 67.7427 103.839 67.6327 104.099 67.6327C104.349 67.6327 104.449 67.7427 104.449 68.0027V74.0927Z" fill="#36363B"/>
</svg>
