<svg width="48" height="52" viewBox="0 0 48 52" fill="none" xmlns="http://www.w3.org/2000/svg">
<g id="Frame 146">
<path id="Rectangle 8325" d="M6.01615 3C6.01615 1.97069 6.85057 1.13627 7.87988 1.13627H44.6C45.6293 1.13627 46.4637 1.97069 46.4637 3V44.187C46.4637 45.2163 45.6293 46.0507 44.6 46.0507H7.87989C6.85057 46.0507 6.01615 45.2163 6.01615 44.187V3Z" fill="#3D3D41" stroke="#FFFDF0" stroke-width="2.27253" stroke-linejoin="round"/>
<path id="Rectangle 8326 (Stroke)" fill-rule="evenodd" clip-rule="evenodd" d="M1.13627 8.53906C1.76381 8.53906 2.27253 9.04779 2.27253 9.67533V48.5911C2.27253 49.2186 2.78125 49.7273 3.40879 49.7273H39.8381C40.4657 49.7273 40.9744 50.2361 40.9744 50.8636C40.9744 51.4911 40.4657 51.9999 39.8381 51.9999H3.40879C1.52616 51.9999 0 50.4737 0 48.5911V9.67533C0 9.04779 0.508723 8.53906 1.13627 8.53906Z" fill="#FFFDF0"/>
<path id="Vector" d="M25.7585 9C22.7666 9 20.3433 11.6428 20.3433 14.9017C20.3501 16.3986 21.2774 17.8351 22.2116 18.9226L19.2535 18.5131C19.3212 18.7682 19.3415 19.0568 19.2399 19.3589C19.1046 19.7549 18.7255 19.9899 18.4344 20.0772C18.1366 20.1577 17.8726 20.1644 17.6357 20.1778C16.7489 20.151 17.2295 20.4128 17.6086 20.7753C17.8117 20.9699 18.0486 21.1847 18.2381 21.4734C18.4344 21.7687 18.5833 22.2118 18.4344 22.6414C18.2923 23.0508 17.92 23.2992 17.6154 23.4066C17.3108 23.5073 17.0197 23.5342 16.7625 23.561C16.2006 23.655 15.9705 23.5409 16.1803 24.0913C16.2683 24.3061 16.424 24.5679 16.6 24.8095L21.0202 26.0648C20.1944 28.5149 18.9895 31.3879 17.9064 34.0125C18.008 33.9723 18.1095 33.9387 18.2178 33.9119C18.6307 33.791 19.1046 33.8044 19.4701 33.9991C19.8356 34.2005 20.0048 34.61 20.0319 34.912C20.0658 35.2141 20.0252 35.4759 19.9913 35.7108C19.8289 36.57 20.1402 36.1606 20.5802 35.8451C20.8171 35.684 21.0744 35.4893 21.3925 35.3551C21.7174 35.2208 22.1845 35.1537 22.5839 35.3819C22.9629 35.59 23.1389 35.9928 23.1931 36.315C23.1998 36.362 23.2066 36.4089 23.2066 36.4559C23.8023 35.2477 24.7229 33.8313 25.7585 33.8313C26.7942 33.8313 27.7148 35.2477 28.3105 36.4559C28.3105 36.4089 28.3172 36.362 28.324 36.315C28.3781 35.9928 28.5541 35.59 28.9332 35.3819C29.3326 35.1537 29.7996 35.2208 30.1246 35.3551C30.4427 35.4893 30.6999 35.684 30.9368 35.8451C31.5867 36.2613 31.6205 36.4828 31.5258 35.7108C31.4919 35.4759 31.4513 35.2141 31.4851 34.912C31.5122 34.61 31.6814 34.2005 32.047 33.9991C32.2568 33.885 32.4734 33.838 32.69 33.8313C32.8999 33.8246 33.1097 33.8582 33.2992 33.9119C33.4075 33.9387 33.5091 33.9723 33.6174 34.0125C32.5343 31.3946 31.3295 28.535 30.5036 26.0917L34.9035 24.823C35.0863 24.5813 35.2487 24.3128 35.3367 24.0913C35.5872 23.5476 35.1472 23.6147 34.7546 23.561C34.4974 23.5342 34.2063 23.5073 33.9017 23.4066C33.5971 23.2992 33.2248 23.0508 33.0826 22.6414C32.9337 22.2118 33.0826 21.7687 33.2789 21.4734C33.4685 21.1847 33.7054 20.9699 33.9085 20.7753C34.4161 20.2248 34.6801 20.2047 33.8814 20.1778C33.6445 20.1644 33.3805 20.1577 33.0826 20.0772C32.7916 19.9899 32.4125 19.7549 32.2771 19.3589C32.1756 19.0635 32.1959 18.7749 32.2636 18.5131L29.2852 18.936C30.2329 17.8486 31.167 16.4054 31.1738 14.9017C31.1738 11.6428 28.7504 9 25.7585 9ZM23.5924 13.427C24.1881 13.427 24.6755 13.9069 24.6755 14.499C24.6755 15.0897 24.1881 15.573 23.5924 15.573C22.9968 15.573 22.5094 15.0897 22.5094 14.499C22.5094 13.9069 22.9968 13.427 23.5924 13.427ZM27.9246 13.427C28.5203 13.427 29.0077 13.9069 29.0077 14.499C29.0077 15.0897 28.5203 15.573 27.9246 15.573C27.3289 15.573 26.8416 15.0897 26.8416 14.499C26.8416 13.9069 27.3289 13.427 27.9246 13.427ZM22.5129 16.6435C22.7506 16.4078 23.132 16.4115 23.3868 16.6284C24.2257 17.3425 25.0093 17.6539 25.7585 17.6539C26.5078 17.6539 27.2914 17.3425 28.1302 16.6284C28.3851 16.4115 28.7665 16.4078 29.0041 16.6435C29.2445 16.8819 29.2456 17.273 28.9886 17.4934C27.9627 18.3734 26.8786 18.8622 25.7585 18.8622C24.6385 18.8622 23.5543 18.3734 22.5285 17.4934C22.2715 17.273 22.2725 16.8819 22.5129 16.6435ZM16.4849 18.1238C11.069 18.1238 11.069 23.0911 14.3182 24.1651L14.9829 24.3531C14.8739 24.0242 14.8225 23.6617 14.9545 23.2858C15.0966 22.8763 15.4696 22.6279 15.7742 22.5205C16.0788 22.4199 16.3699 22.393 16.6271 22.3662C17.5883 22.2789 17.2634 22.1111 16.7557 21.6412C16.5526 21.4398 16.3157 21.225 16.1262 20.9297C15.9367 20.641 15.7945 20.1846 15.957 19.7549C16.1059 19.3656 16.4849 19.1441 16.7828 19.0635C17.2295 18.936 17.6357 19.0166 18.0824 18.9159C18.0554 18.6809 17.9335 18.4997 17.8117 18.3117L16.4849 18.1238ZM35.0321 18.1238L33.7054 18.3117C33.5835 18.4997 33.4549 18.6876 33.4346 18.9159C33.8746 18.9964 34.3417 18.9561 34.7343 19.0635C35.0321 19.1441 35.4112 19.3656 35.5601 19.7549C35.7226 20.1846 35.5804 20.641 35.3909 20.9297C35.2013 21.225 34.9644 21.4398 34.7614 21.6412C34.0641 22.3259 34.0438 22.2588 34.89 22.3662C35.1472 22.393 35.4383 22.4199 35.7429 22.5205C36.0475 22.6279 36.4198 22.8763 36.5619 23.2858C36.6905 23.6617 36.6432 24.0242 36.5348 24.3598L37.1982 24.1651C40.4473 23.0911 40.4474 18.1238 35.0321 18.1238ZM22.5094 21.0046C22.5094 20.6195 22.9265 20.379 23.2598 20.5719L24.7364 21.4264C24.8853 20.9901 25.2982 20.7014 25.7585 20.7014C26.2188 20.7014 26.6317 20.9901 26.7807 21.4264L28.2572 20.5719C28.5906 20.379 29.0077 20.6195 29.0077 21.0046V22.612C29.0077 22.9682 28.6459 23.2101 28.3167 23.0741L26.652 22.3863C26.449 22.6749 26.1173 22.8495 25.7585 22.8495C25.3998 22.8495 25.0681 22.6749 24.865 22.3863L23.2003 23.0741C22.8712 23.2101 22.5094 22.9682 22.5094 22.612V21.0046ZM25.7585 24.1651C26.3542 24.1651 26.8416 24.6484 26.8416 25.2392C26.8416 25.8299 26.3542 26.3132 25.7585 26.3132C25.1629 26.3132 24.6755 25.8299 24.6755 25.2392C24.6755 24.6484 25.1629 24.1651 25.7585 24.1651ZM25.7585 27.6557C26.3542 27.6557 26.8416 28.139 26.8416 28.7297C26.8416 29.3204 26.3542 29.8037 25.7585 29.8037C25.1629 29.8037 24.6755 29.3204 24.6755 28.7297C24.6755 28.139 25.1629 27.6557 25.7585 27.6557ZM18.7323 35.0463C18.6849 35.0463 18.6172 35.053 18.5292 35.0798C18.3058 35.1335 18.0215 35.2611 17.7575 35.4088C17.4665 35.5766 17.216 35.6773 17.0942 35.9793C15.0215 40.0875 19.8898 41.2487 22.2116 38.5234C22.0829 38.3355 22.0153 38.1341 21.9882 37.9528C21.9408 37.6306 21.9611 37.3487 21.9814 37.0936C21.9746 36.8788 22.0288 36.6439 21.9746 36.4358C21.8122 36.4694 21.467 36.711 21.291 36.8318C21.054 36.9997 20.7968 37.1876 20.4719 37.3219C20.1538 37.4561 19.6732 37.5098 19.2806 37.2749H19.2738C18.915 37.0534 18.7661 36.6439 18.739 36.3485C18.712 36.0465 18.7526 35.7847 18.7864 35.5564C18.8135 35.3282 18.827 35.1403 18.8203 35.0463H18.7323ZM32.6968 35.0463C32.69 35.1403 32.7036 35.3282 32.7306 35.5564C32.7645 35.7847 32.8051 36.0465 32.778 36.3485C32.751 36.6439 32.602 37.0534 32.2433 37.2749H32.2365C31.8439 37.5098 31.3633 37.4561 31.0452 37.3219C30.7202 37.1876 30.463 36.9997 30.2261 36.8318C30.0095 36.6909 29.7726 36.5029 29.5424 36.4358C29.5086 36.6372 29.5289 36.9124 29.5357 37.0936C29.556 37.3487 29.5763 37.6306 29.5289 37.9528C29.5018 38.1341 29.4341 38.3355 29.3055 38.5234C31.6273 41.2487 36.4942 40.0875 34.4229 35.9793C34.3349 35.6773 33.9829 35.5363 33.7595 35.4088C33.4955 35.2611 33.2112 35.1335 32.9879 35.0798C32.8931 35.0463 32.7983 35.0463 32.6968 35.0463Z" fill="#FFFDF0"/>
</g>
</svg>
