<svg width="35" height="36" viewBox="0 0 35 36" fill="none" xmlns="http://www.w3.org/2000/svg">
<mask id="mask0_3821_2181" style="mask-type:alpha" maskUnits="userSpaceOnUse" x="0" y="0" width="35" height="36">
<rect y="0.5" width="35" height="35" fill="#D9D9D9"/>
</mask>
<g mask="url(#mask0_3821_2181)">
<path d="M5.83317 29.6666C5.03109 29.6666 4.34446 29.381 3.77327 28.8099C3.20209 28.2387 2.9165 27.552 2.9165 26.75V9.24996C2.9165 8.44788 3.20209 7.76124 3.77327 7.19006C4.34446 6.61888 5.03109 6.33329 5.83317 6.33329H20.5623C20.4651 6.8194 20.4165 7.30552 20.4165 7.79163C20.4165 8.27774 20.4651 8.76385 20.5623 9.24996H5.83317L17.4998 16.5416L22.8228 13.2239C23.163 13.5399 23.5337 13.8133 23.9347 14.0442C24.3358 14.2751 24.755 14.4757 25.1925 14.6458L17.4998 19.4583L5.83317 12.1666V26.75H29.1665V14.9375C29.7255 14.8159 30.2481 14.6458 30.7342 14.427C31.2203 14.2083 31.67 13.9409 32.0832 13.625V26.75C32.0832 27.552 31.7976 28.2387 31.2264 28.8099C30.6552 29.381 29.9686 29.6666 29.1665 29.6666H5.83317ZM27.7082 12.1666C26.4929 12.1666 25.4599 11.7413 24.6092 10.8906C23.7585 10.0399 23.3332 9.0069 23.3332 7.79163C23.3332 6.57635 23.7585 5.54336 24.6092 4.69267C25.4599 3.84197 26.4929 3.41663 27.7082 3.41663C28.9234 3.41663 29.9564 3.84197 30.8071 4.69267C31.6578 5.54336 32.0832 6.57635 32.0832 7.79163C32.0832 9.0069 31.6578 10.0399 30.8071 10.8906C29.9564 11.7413 28.9234 12.1666 27.7082 12.1666Z" fill="#DDDDDE"/>
</g>
</svg>
