<svg width="4" height="14" viewBox="0 0 4 14" fill="none" xmlns="http://www.w3.org/2000/svg">
<path d="M1.99998 13.6663C1.54165 13.6663 1.14929 13.5031 0.822896 13.1768C0.496507 12.8504 0.333313 12.458 0.333313 11.9997C0.333313 11.5413 0.496507 11.149 0.822896 10.8226C1.14929 10.4962 1.54165 10.333 1.99998 10.333C2.45831 10.333 2.85067 10.4962 3.17706 10.8226C3.50345 11.149 3.66665 11.5413 3.66665 11.9997C3.66665 12.458 3.50345 12.8504 3.17706 13.1768C2.85067 13.5031 2.45831 13.6663 1.99998 13.6663ZM1.99998 8.66634C1.54165 8.66634 1.14929 8.50315 0.822896 8.17676C0.496507 7.85037 0.333313 7.45801 0.333313 6.99967C0.333313 6.54134 0.496507 6.14898 0.822896 5.82259C1.14929 5.4962 1.54165 5.33301 1.99998 5.33301C2.45831 5.33301 2.85067 5.4962 3.17706 5.82259C3.50345 6.14898 3.66665 6.54134 3.66665 6.99967C3.66665 7.45801 3.50345 7.85037 3.17706 8.17676C2.85067 8.50315 2.45831 8.66634 1.99998 8.66634ZM1.99998 3.66634C1.54165 3.66634 1.14929 3.50315 0.822896 3.17676C0.496507 2.85037 0.333313 2.45801 0.333313 1.99967C0.333313 1.54134 0.496507 1.14898 0.822896 0.822591C1.14929 0.496202 1.54165 0.333008 1.99998 0.333008C2.45831 0.333008 2.85067 0.496202 3.17706 0.822591C3.50345 1.14898 3.66665 1.54134 3.66665 1.99967C3.66665 2.45801 3.50345 2.85037 3.17706 3.17676C2.85067 3.50315 2.45831 3.66634 1.99998 3.66634Z" fill="#1C1B1F"/>
</svg>
