<svg width="42" height="20" viewBox="0 0 42 20" fill="none" xmlns="http://www.w3.org/2000/svg">
<rect width="42" height="20" rx="10" fill="#2F9C89"/>
<path d="M16.63 6.97C17.83 6.97 19.04 7.98 19.04 9.73V10.43C19.04 12.18 17.83 13.18 16.63 13.18C15.85 13.18 15.14 12.84 14.68 12.2V14.7H13.68V7.12H14.62L14.67 7.97C15.12 7.32 15.84 6.97 16.63 6.97ZM18.03 10.4V9.76C18.03 8.54 17.28 7.89 16.35 7.89C15.43 7.89 14.68 8.54 14.68 9.76V10.4C14.68 11.62 15.42 12.27 16.35 12.27C17.28 12.27 18.03 11.62 18.03 10.4ZM22.6948 6.97C22.9748 6.97 23.2648 7.02 23.4748 7.1L23.2348 8C23.0048 7.93 22.7448 7.89 22.5248 7.89C21.8148 7.89 21.2448 8.54 21.2448 9.48V13H20.2448V7.12H21.1748L21.2248 8C21.5048 7.38 22.0048 6.97 22.6948 6.97ZM26.5718 13.15C25.1418 13.15 23.8718 12.23 23.8718 10.46V9.66C23.8718 7.9 25.1418 6.97 26.5718 6.97C28.0118 6.97 29.2818 7.9 29.2818 9.66V10.46C29.2818 12.23 28.0118 13.15 26.5718 13.15ZM26.5718 12.23C27.4818 12.23 28.2718 11.61 28.2718 10.43V9.69C28.2718 8.51 27.4818 7.89 26.5718 7.89C25.6518 7.89 24.8718 8.51 24.8718 9.69V10.43C24.8718 11.61 25.6618 12.23 26.5718 12.23Z" fill="#FFFDF0"/>
</svg>
