<svg width="32" height="32" viewBox="0 0 32 32" fill="none" xmlns="http://www.w3.org/2000/svg">
<g id="mingcute:home-5-fill" clip-path="url(#clip0_2406_2280)">
<g id="Group">
<g id="Vector">
<path fill-rule="evenodd" clip-rule="evenodd" d="M17.6373 3.58407C17.1692 3.21992 16.593 3.02222 16 3.02222C15.4069 3.02222 14.8308 3.21992 14.3626 3.58407L3.18398 12.2774C2.18131 13.0601 2.73331 14.6667 4.00398 14.6667H5.45998L6.55331 25.5987C6.61911 26.2567 6.92705 26.8668 7.41735 27.3106C7.90766 27.7543 8.54535 28 9.20664 28.0001H22.7933C23.4546 28 24.0923 27.7543 24.5826 27.3106C25.0729 26.8668 25.3808 26.2567 25.4466 25.5987L26.54 14.6667H27.996C29.2653 14.6667 29.82 13.0601 28.816 12.2787L17.6373 3.58407ZM16 21.3334C17.0608 21.3334 18.0783 20.912 18.8284 20.1618C19.5786 19.4117 20 18.3943 20 17.3334C20 16.2725 19.5786 15.2551 18.8284 14.505C18.0783 13.7548 17.0608 13.3334 16 13.3334C14.9391 13.3334 13.9217 13.7548 13.1715 14.505C12.4214 15.2551 12 16.2725 12 17.3334C12 18.3943 12.4214 19.4117 13.1715 20.1618C13.9217 20.912 14.9391 21.3334 16 21.3334Z" fill="#FFFDF0"/>
<path fill-rule="evenodd" clip-rule="evenodd" d="M17.6373 3.58407C17.1692 3.21992 16.593 3.02222 16 3.02222C15.4069 3.02222 14.8308 3.21992 14.3626 3.58407L3.18398 12.2774C2.18131 13.0601 2.73331 14.6667 4.00398 14.6667H5.45998L6.55331 25.5987C6.61911 26.2567 6.92705 26.8668 7.41735 27.3106C7.90766 27.7543 8.54535 28 9.20664 28.0001H22.7933C23.4546 28 24.0923 27.7543 24.5826 27.3106C25.0729 26.8668 25.3808 26.2567 25.4466 25.5987L26.54 14.6667H27.996C29.2653 14.6667 29.82 13.0601 28.816 12.2787L17.6373 3.58407ZM16 21.3334C17.0608 21.3334 18.0783 20.912 18.8284 20.1618C19.5786 19.4117 20 18.3943 20 17.3334C20 16.2725 19.5786 15.2551 18.8284 14.505C18.0783 13.7548 17.0608 13.3334 16 13.3334C14.9391 13.3334 13.9217 13.7548 13.1715 14.505C12.4214 15.2551 12 16.2725 12 17.3334C12 18.3943 12.4214 19.4117 13.1715 20.1618C13.9217 20.912 14.9391 21.3334 16 21.3334Z" fill="url(#paint0_linear_2406_2280)" fill-opacity="0.6"/>
</g>
</g>
</g>
<defs>
<linearGradient id="paint0_linear_2406_2280" x1="16.0001" y1="3.02222" x2="16.0001" y2="28.0001" gradientUnits="userSpaceOnUse">
<stop stop-color="#FFFEFB"/>
<stop offset="1" stop-color="white" stop-opacity="0"/>
</linearGradient>
<clipPath id="clip0_2406_2280">
<rect width="32" height="32" fill="white"/>
</clipPath>
</defs>
</svg>
